<svg width="251" height="67" viewBox="0 0 251 67" fill="none" xmlns="http://www.w3.org/2000/svg">
<path d="M31 24.5C37.9959 23.5782 141.385 13.7452 133.778 42C126.465 69.1636 71.1759 74.1957 85 43.8889C95.6781 20.4793 136.241 9.03099 158.778 8.11112C173.736 7.50056 189.444 7.57829 198 15.5C206.556 23.4218 225.5 24.5 231.5 24.5" stroke="black" stroke-width="3" stroke-linecap="round"/>
<path d="M205 2C207.052 2.77518 259.338 20.7634 246.556 26.4444C231.218 33.2613 216.301 41.1147 201 48" stroke="black" stroke-width="3" stroke-linecap="round"/>
<path d="M21 24C21 25.4654 21.6639 25.9175 23.2222 25.4722C24.6894 25.053 20.4993 24.2771 21.6111 25.3889C22.0033 25.7811 21.5556 25.0578 21.5556 26.1667C21.5556 26.633 22.0519 25.1075 21.7222 24.7778C21.327 24.3825 20.3244 26 22.5 26" stroke="black" stroke-width="3" stroke-linecap="round"/>
<path d="M12 24C12 25.4654 12.6639 25.9175 14.2222 25.4722C15.6894 25.053 11.4993 24.2771 12.6111 25.3889C13.0033 25.7811 12.5556 25.0578 12.5556 26.1667C12.5556 26.633 13.0519 25.1075 12.7222 24.7778C12.327 24.3825 11.3244 26 13.5 26" stroke="black" stroke-width="3" stroke-linecap="round"/>
<path d="M2 24C2 25.4654 2.66387 25.9175 4.22222 25.4722C5.68941 25.053 1.49933 24.2771 2.61111 25.3889C3.00334 25.7811 2.55556 25.0578 2.55556 26.1667C2.55556 26.633 3.05194 25.1075 2.72222 24.7778C2.32697 24.3825 1.3244 26 3.5 26" stroke="black" stroke-width="3" stroke-linecap="round"/>
</svg>
