<svg width="4479" height="4858" viewBox="0 0 4479 4858" fill="none" xmlns="http://www.w3.org/2000/svg">
<g clip-path="url(#clip0_325_144)">
<rect width="4479" height="4858" fill="white"/>
<path d="M2758.65 3848.01V4198.84C2758.65 4549.79 3336.04 4697.23 3336.04 4697.23H1285.96C1285.96 4697.23 1859.08 4549.79 1859.08 4198.96V3848.14M232.833 3316.87H4389.17M4060.14 3848.01H561.97C474.736 3848.01 391.07 3810.2 329.354 3742.87C267.639 3675.55 232.923 3584.23 232.833 3488.97V1019.93C232.893 924.675 267.58 833.338 329.275 765.991C390.969 698.645 474.623 660.798 561.858 660.765H4060.03C4147.28 660.765 4230.97 698.598 4292.69 765.948C4354.4 833.298 4389.11 924.653 4389.17 1019.93V3488.97C4389.08 3584.23 4354.36 3675.55 4292.65 3742.87C4230.93 3810.2 4147.38 3848.01 4060.14 3848.01Z" stroke="black" stroke-width="82.8333" stroke-linecap="round" stroke-linejoin="round"/>
<path d="M2613.37 2623.48L2611.5 2620.41L2599.76 2601.08L2597.99 2598.17L2600.85 2596.32L2660.38 2557.82L2654.51 2548.16L2651.2 2550.3L2648.18 2552.25L2646.31 2549.18L2643.66 2544.81L2642.05 2551.83L2641.73 2553.22L2640.53 2553.99L2634.21 2558.08L2631.18 2560.04L2629.31 2556.96L2612.4 2529.13L2610.63 2526.22L2613.49 2524.37L2619.82 2520.28L2621.06 2519.47L2622.5 2519.8L2629.42 2521.39L2626.74 2516.97L2624.97 2514.06L2627.83 2512.21L2659.92 2491.45C2663.28 2489.28 2666.78 2487.85 2670.39 2487.28C2673.88 2486.72 2677.33 2486.83 2680.71 2487.6C2684.09 2488.37 2687.23 2489.78 2690.14 2491.8C2693.14 2493.89 2695.66 2496.7 2697.74 2500.12L2699.51 2503.02L2696.65 2504.87L2678.71 2516.48L2683.94 2525.07L2685.7 2527.98L2682.85 2529.83L2679.37 2532.07L2685.24 2541.73L2700.81 2531.67C2700.76 2530.71 2700.75 2529.75 2700.77 2528.77C2700.82 2526.98 2701.04 2525.21 2701.43 2523.48L2701.44 2523.47C2703.33 2515.22 2707.74 2508.75 2714.65 2504.28C2721.56 2499.81 2729.18 2498.51 2737.28 2500.37L2613.37 2623.48ZM2613.37 2623.48L2616.39 2621.53L2716.16 2556.99C2717 2557.49 2717.86 2557.93 2718.77 2558.3C2720.35 2558.97 2721.98 2559.49 2723.64 2559.87L2613.37 2623.48ZM2735.03 2534.53L2754.38 2522.01L2758.57 2519.3L2759.7 2524.16C2760.21 2526.38 2760.43 2528.56 2760.34 2530.68C2760.25 2532.67 2759.96 2534.7 2759.48 2536.77C2759.48 2536.77 2759.48 2536.78 2759.47 2536.78L2735.03 2534.53ZM2735.03 2534.53L2728.6 2523.95L2748.12 2511.32L2752.34 2508.59L2748.31 2505.58C2746.62 2504.32 2744.89 2503.25 2743.1 2502.39C2741.29 2501.51 2739.34 2500.84 2737.28 2500.37C2737.28 2500.37 2737.28 2500.37 2737.28 2500.37L2735.03 2534.53ZM2712.47 2643.55L2714.34 2646.62L2717.36 2644.67L2736.35 2632.39L2739.21 2630.54L2737.44 2627.63L2706.83 2577.25L2704.96 2574.17L2701.93 2576.13L2682.95 2588.41L2680.09 2590.26L2681.86 2593.16L2712.47 2643.55Z" fill="#FF70A6" stroke="black" stroke-width="7"/>
<path d="M2449.98 2526.53C2420.66 2529.67 2394.46 2509.57 2391.47 2481.63C2388.48 2453.69 2409.82 2428.49 2439.14 2425.35C2468.46 2422.21 2494.66 2442.31 2497.65 2470.25C2500.65 2498.2 2479.3 2523.39 2449.98 2526.53Z" fill="black"/>
<path d="M2461 2635C2461 2635 2468.41 2698.53 2424.95 2794.17C2421.42 2801.96 2402.89 2844.02 2402.89 2844.02L2537.05 3010.27L2573.99 3313.34L2513.39 3319.83L2453.98 3070.34L2336.96 2980.53L2221.75 2907.58L2214.52 2840.13L2300.83 2643.25" fill="black"/>
<path d="M2219.94 2890.72L2114.13 3072.63L1945.04 3193.09L1968.16 3241.78L2174.44 3134.4L2319.26 2982.42M2300.83 2643.25C2329 2572 2370.34 2563.6 2401.09 2571.39C2410.4 2574.31 2418.98 2578.99 2426.32 2585.16C2433.66 2591.32 2439.61 2598.85 2443.8 2607.29C2448 2615.74 2450.35 2624.91 2450.74 2634.28C2451.12 2643.65 2449.51 2653.01 2446.02 2661.81" fill="black"/>
<path d="M2449.98 2526.53C2420.66 2529.67 2394.46 2509.57 2391.47 2481.63C2388.48 2453.69 2409.82 2428.49 2439.14 2425.35C2468.46 2422.21 2494.66 2442.31 2497.65 2470.25C2500.65 2498.2 2479.3 2523.39 2449.98 2526.53Z" stroke="black" stroke-width="24.7778" stroke-miterlimit="10"/>
<path d="M2219.94 2890.72L2131.45 3042.82C2119.36 3062.01 2103.79 3079.02 2085.47 3093.04L1973.7 3172.67C1966.23 3177.46 1960.55 3184.39 1957.47 3192.45C1954.4 3200.5 1954.09 3209.26 1956.6 3217.43C1958.75 3220.75 1961.59 3223.61 1964.95 3225.82C1968.32 3228.04 1972.13 3229.57 1976.15 3230.32C1980.17 3231.07 1984.32 3231.03 1988.34 3230.19C1992.36 3229.36 1996.17 3227.75 1999.52 3225.46L2143.08 3150.72C2163.49 3139.41 2182.15 3125.41 2198.5 3109.15L2319.26 2982.42" stroke="black" stroke-width="24.7778" stroke-linecap="round" stroke-linejoin="round"/>
<path d="M2405.15 2795.61L2397.34 2818.96C2393.63 2839.07 2398.09 2859.7 2409.8 2876.64L2514.99 2983.84C2528.54 3001.59 2537.5 3022.18 2541.14 3043.94L2569.9 3279.67C2571.51 3287.83 2569.66 3296.3 2564.75 3303.22C2559.83 3310.15 2552.26 3314.95 2543.69 3316.59C2534.64 3316.7 2525.86 3313.79 2518.89 3308.35C2511.91 3302.91 2507.18 3295.29 2505.52 3286.82L2461.85 3103.35C2455.68 3082.4 2443.39 3063.61 2426.4 3049.15L2364.54 3001.71C2346.04 2987.75 2327.01 2974.46 2307.47 2961.85L2251.24 2926.26C2233.5 2913.58 2221.64 2894.81 2218.13 2873.86C2210.47 2840.72 2259.8 2770.75 2267.38 2753.44L2300.71 2643.14M2301.64 2639.74C2321.41 2568.36 2370.32 2563.6 2401.09 2571.39C2414.86 2575.21 2426.99 2583.08 2435.75 2593.87C2444.52 2604.67 2449.48 2617.85 2449.94 2631.56" stroke="black" stroke-width="24.7778" stroke-linecap="round" stroke-linejoin="round"/>
<path d="M2390.41 2633.66L2424.71 2716.58C2428.76 2725.34 2435.54 2732.68 2444.12 2737.62C2452.7 2742.56 2462.69 2744.87 2472.75 2744.24L2596.63 2730.97M2362 2458C2362 2458 2348.6 2452.49 2343 2458C2312.27 2463.03 2338.54 2427.88 2331 2438C2343.73 2390 2386.23 2429.19 2374 2433" stroke="black" stroke-width="45" stroke-linecap="round" stroke-linejoin="round"/>
<path fill-rule="evenodd" clip-rule="evenodd" d="M2338.7 2487.12C2333.89 2490.42 2328.36 2492.23 2322.52 2492.07C2309.84 2491.74 2299.12 2482.18 2294.28 2468.61C2283.77 2461.8 2276.76 2447.82 2277.19 2431.88C2277.79 2409.64 2292.62 2391.99 2310.32 2392.47C2311.52 2392.5 2312.7 2392.61 2313.86 2392.81C2319.53 2379.97 2330.54 2371.38 2342.96 2371.72C2355.38 2372.05 2365.91 2381.21 2370.89 2394.33C2372.05 2394.2 2373.24 2394.15 2374.43 2394.18C2392.14 2394.66 2406.01 2413.07 2405.41 2435.31C2404.95 2452.7 2395.78 2467.28 2383.34 2472.59C2377.58 2485.01 2366.76 2493.26 2354.58 2492.93C2348.74 2492.78 2343.32 2490.67 2338.7 2487.12Z" fill="#FF70A6"/>
<path d="M2383.48 2368.07C2379.18 2371.12 2378.29 2371.27 2382.32 2375.8C2386.05 2379.99 2390.73 2376.82 2385.64 2373.59C2383.19 2372.04 2373.38 2377.57 2372.5 2379.47C2371.68 2381.27 2377.47 2383.24 2378.17 2383.5C2385.21 2386.15 2379.88 2380.21 2374.6 2381.33C2372.8 2381.71 2366.69 2384.04 2366.45 2386.2C2366.25 2387.95 2369.54 2388.98 2370.49 2389.67C2374.03 2392.22 2382.12 2394.05 2375.02 2388.99C2372.84 2387.43 2370.84 2385.7 2368.13 2386.34C2365.34 2387.01 2357.2 2388.19 2360.49 2391.88C2363.44 2395.2 2366.37 2398.49 2369.46 2401.96" stroke="#FF70A6" stroke-width="3" stroke-linecap="round"/>
<path d="M2297.66 2418.12C2290.07 2418.12 2273 2403.33 2268.28 2396.06C2259.22 2382.14 2272.21 2374.66 2284.44 2374.18C2289.62 2373.97 2298.25 2375.07 2294.44 2382.68C2293.67 2384.21 2290.25 2384.64 2288.89 2384.9C2287.29 2385.2 2285.71 2385.13 2284.11 2384.9C2279.03 2384.17 2277.16 2382.18 2277.16 2380.12" stroke="#FF70A6" stroke-width="2" stroke-linecap="round"/>
<path d="M2310.67 2457.76C2303.53 2457.76 2297.62 2456.3 2292.4 2458.62C2288.19 2460.49 2283.9 2462.03 2280.43 2465.07V2465.07C2275.45 2469.44 2266.82 2474.87 2268.36 2481.32C2268.68 2482.69 2269.07 2483.72 2269.17 2483.76C2271.12 2484.69 2271.38 2485.99 2273.44 2486.76C2273.68 2486.85 2274.13 2486.97 2274.73 2487.11C2282.01 2488.73 2288.12 2486.94 2290.17 2479.76V2479.76C2290.58 2478.31 2278.67 2474.96 2278.67 2479.76" stroke="#FF70A6" stroke-width="2" stroke-linecap="round"/>
<path d="M2501.7 2513.82C2504.51 2514.85 2479.81 2512.04 2469.26 2506.26C2467.55 2505.32 2467.8 2505.14 2469.03 2506.65C2470.74 2508.74 2472.52 2510.81 2474.32 2511.59C2480.11 2514.11 2495.27 2516.24 2501.53 2516.62" stroke="white" stroke-width="3" stroke-linecap="round"/>
<path d="M2540.16 2624.95C2541.6 2622.64 2544.75 2621.31 2547.96 2621.66L2665 2633.25L2782.05 2621.66C2785.25 2621.35 2788.4 2622.68 2789.84 2624.95L2809.78 2656.55C2814.08 2663.34 2809.49 2671.56 2800.31 2673.64L2722.18 2691.34C2715.54 2692.85 2708.41 2690.62 2704.88 2685.92L2665 2633.25L2625.12 2685.92C2621.59 2690.62 2614.46 2692.85 2607.82 2691.34L2529.74 2673.64C2520.51 2671.56 2515.97 2663.34 2520.27 2656.55L2540.16 2624.95ZM2665.53 2657.5L2691.78 2692.13C2698.9 2701.53 2713.1 2706 2726.44 2702.97L2787.4 2689.18V2752.45C2787.4 2760.79 2780.23 2768.06 2770 2770.11L2672.41 2789.44C2667.53 2790.42 2662.42 2790.42 2657.59 2789.44L2560 2770.11C2549.77 2768.03 2542.6 2760.75 2542.6 2752.42V2689.14L2603.61 2702.97C2616.9 2706 2631.15 2701.53 2638.27 2692.13L2664.47 2657.5H2665.53Z" fill="black"/>
<path d="M3672.25 2929.5C3668.72 2921.06 3663.8 2913.64 3657.5 2907.23C3651.2 2900.83 3643.83 2895.75 3635.37 2892C3643.67 2888.41 3650.97 2883.41 3657.27 2877C3663.57 2870.59 3668.56 2863.09 3672.25 2854.5C3675.78 2862.94 3680.7 2870.36 3687 2876.77C3693.3 2883.17 3700.67 2888.25 3709.12 2892C3700.83 2895.59 3693.53 2900.59 3687.23 2907C3680.93 2913.41 3675.94 2920.91 3672.25 2929.5ZM4055.75 2944.5C4059.28 2952.94 4064.2 2960.36 4070.5 2966.77C4076.8 2973.17 4084.17 2978.25 4092.62 2982C4084.33 2985.59 4077.03 2990.59 4070.73 2997C4064.43 3003.41 4059.44 3010.91 4055.75 3019.5C4052.22 3011.06 4047.3 3003.64 4041 2997.23C4034.7 2990.83 4027.33 2985.75 4018.87 2982C4027.17 2978.41 4034.47 2973.41 4040.77 2967C4047.07 2960.59 4052.06 2953.09 4055.75 2944.5ZM3967.25 2967C3960.03 2949.97 3950.12 2935.05 3937.52 2922.23C3924.92 2909.42 3910.25 2899.34 3893.5 2892C3910.25 2884.66 3924.92 2874.58 3937.52 2861.77C3950.12 2848.95 3960.03 2834.03 3967.25 2817C3974.47 2834.03 3984.38 2848.95 3996.98 2861.77C4009.58 2874.58 4024.25 2884.66 4041 2892C4024.25 2899.34 4009.58 2909.42 3996.98 2922.23C3984.38 2935.05 3974.47 2949.97 3967.25 2967ZM3967.25 2862.47C3958.65 2873.56 3948.97 2883.41 3938.21 2892C3948.97 2900.75 3958.65 2910.59 3967.25 2921.53C3975.7 2910.59 3985.38 2900.75 3996.29 2892C3985.38 2883.41 3975.7 2873.56 3967.25 2862.47ZM3800.16 3000.98C3792.94 3000.98 3786.18 2999.5 3779.88 2996.53C3773.58 2993.56 3767.97 2989.42 3763.05 2984.11C3758.14 2978.8 3754.45 2972.86 3751.99 2966.3C3749.53 2959.73 3748.15 2952.78 3747.84 2945.44C3747.84 2936.22 3749.69 2927.63 3753.37 2919.66C3757.06 2911.69 3762.13 2904.66 3768.59 2898.56C3775.04 2892.47 3782.26 2887.7 3790.25 2884.27C3798.24 2880.83 3806.84 2879.03 3816.06 2878.88C3828.97 2878.88 3840.42 2881.61 3850.4 2887.08C3860.39 2892.55 3868.92 2899.89 3875.98 2909.11C3883.05 2918.33 3888.28 2928.64 3891.66 2940.05C3895.04 2951.45 3896.88 2963.25 3897.19 2975.44C3897.19 2991.84 3894.58 3007.16 3889.35 3021.38C3884.13 3035.59 3876.98 3048.64 3867.92 3060.52C3858.85 3072.39 3848.02 3082.7 3835.42 3091.45C3822.82 3100.2 3809.46 3107.78 3795.32 3114.19C3793.94 3114.81 3792.17 3115.13 3790.02 3115.13C3786.49 3115.13 3783.49 3113.88 3781.03 3111.38C3778.57 3108.88 3777.34 3105.75 3777.34 3102C3777.34 3096.38 3779.96 3092.31 3785.18 3089.81C3796.86 3084.19 3807.61 3078.17 3817.45 3071.77C3827.28 3065.36 3835.96 3057.94 3843.49 3049.5C3851.02 3041.06 3857.09 3031.53 3861.7 3020.91C3866.3 3010.28 3869.38 2997.94 3870.91 2983.88C3871.07 2982.31 3871.14 2980.83 3871.14 2979.42C3871.14 2978.02 3871.22 2976.45 3871.37 2974.73C3871.37 2966.61 3870.22 2958.41 3867.92 2950.13C3865.61 2941.84 3862.16 2934.34 3857.55 2927.63C3852.94 2920.91 3847.18 2915.52 3840.26 2911.45C3833.35 2907.39 3825.28 2905.28 3816.06 2905.13C3810.84 2905.13 3805.69 2906.14 3800.62 2908.17C3795.55 2910.2 3791.02 2913.09 3787.02 2916.84C3783.03 2920.59 3779.8 2924.81 3777.34 2929.5C3774.89 2934.19 3773.66 2939.5 3773.66 2945.44C3773.66 2949.03 3774.35 2952.55 3775.73 2955.98C3777.11 2959.42 3778.96 2962.55 3781.26 2965.36C3783.57 2968.17 3786.41 2970.44 3789.79 2972.16C3793.17 2973.88 3796.7 2974.73 3800.39 2974.73C3804.08 2974.73 3807 2974.19 3809.15 2973.09C3811.3 2972 3813.07 2970.44 3814.45 2968.41C3815.83 2966.38 3816.91 2964.42 3817.68 2962.55C3818.44 2960.67 3819.37 2958.72 3820.44 2956.69C3821.52 2954.66 3822.82 2953.17 3824.36 2952.23C3825.9 2951.3 3828.12 2950.67 3831.04 2950.36C3834.58 2950.36 3837.65 2951.69 3840.26 2954.34C3842.87 2957 3844.18 2960.13 3844.18 2963.72C3844.18 2964.5 3844.03 2965.52 3843.72 2966.77C3842.49 2971.77 3840.49 2976.38 3837.73 2980.59C3834.96 2984.81 3831.58 2988.41 3827.59 2991.38C3823.59 2994.34 3819.37 2996.69 3814.91 2998.41C3810.45 3000.13 3805.54 3000.98 3800.16 3000.98ZM4002.97 3027L4066.12 3091.45L4045.38 3112.55L4011.5 3078.33V3297H3687V3078.33L3653.12 3112.55L3632.38 3091.45L3695.53 3027H3823.44C3818.06 3033.41 3812.14 3039.03 3805.69 3043.88C3799.24 3048.72 3792.25 3053.09 3784.72 3057H3716.5V3267H3982V3057H3905.71C3908.33 3052.16 3910.71 3047.23 3912.86 3042.23C3915.01 3037.23 3916.93 3032.16 3918.62 3027H4002.97Z" fill="black"/>
<path d="M375.375 1236.38C375.375 1215 381.785 1194.5 393.196 1179.39C404.606 1164.27 420.082 1155.78 436.219 1155.78H1774.78C1790.92 1155.78 1806.39 1164.27 1817.8 1179.39C1829.21 1194.5 1835.62 1215 1835.62 1236.38C1835.62 1257.75 1829.21 1278.25 1817.8 1293.36C1806.39 1308.48 1790.92 1316.97 1774.78 1316.97H1592.25C1592.25 1361.78 1567.67 1397.56 1536.88 1397.56H1500.98V1646.6C1552.7 1665.13 1591.03 1728.8 1591.03 1802.95C1591.03 1859.04 1569.13 1908.69 1536.09 1937.54L1592.07 2042.31H1865.2C1873.36 2042.23 1881.23 2046.41 1887.08 2053.95C1892.94 2061.5 1896.31 2071.79 1896.47 2082.61C1896.47 2087.93 1895.67 2093.19 1894.13 2098.11C1892.59 2103.02 1890.32 2107.47 1887.47 2111.22C1884.62 2114.96 1881.24 2117.93 1877.52 2119.93C1873.8 2121.94 1869.82 2122.95 1865.8 2122.91H1835.62V2364.69H1865.2C1873.36 2364.6 1881.23 2368.78 1887.08 2376.33C1892.94 2383.87 1896.31 2394.17 1896.47 2404.98C1896.31 2415.8 1892.94 2426.1 1887.08 2433.64C1881.23 2441.19 1873.36 2445.37 1865.2 2445.28H1803.26C1804.12 2452.65 1803.39 2460.2 1801.15 2467.05C1798.91 2473.89 1795.25 2479.76 1790.6 2483.97C1785.12 2488.8 1779.04 2491.22 1772.96 2491.22C1763.22 2491.22 1754.09 2485.58 1748.01 2474.3L1732.49 2445.28H1206.2L1190.68 2474.3C1184.6 2485.58 1175.47 2491.22 1165.74 2491.22C1159.65 2491.22 1153.57 2488.8 1148.09 2483.97C1143.44 2479.76 1139.78 2473.89 1137.54 2467.05C1135.3 2460.2 1134.57 2452.65 1135.44 2445.28H1075.93C1067.76 2445.37 1059.9 2441.19 1054.04 2433.64C1048.19 2426.1 1044.82 2415.8 1044.66 2404.98C1044.66 2382.9 1058.77 2364.69 1075.93 2364.69H1105.5V2122.91H1075.93C1067.76 2122.99 1059.9 2118.81 1054.04 2111.27C1048.19 2103.72 1044.82 2093.43 1044.66 2082.61C1044.66 2060.53 1058.77 2042.31 1075.93 2042.31H1346.68L1402.66 1937.54C1385.79 1922.9 1371.93 1902.94 1362.33 1879.44C1352.73 1855.95 1347.69 1829.66 1347.66 1802.95C1347.66 1780.38 1361.65 1762.65 1378.08 1762.65C1395.12 1762.65 1408.5 1780.38 1408.5 1802.95C1408.5 1831.96 1420.24 1857.59 1437.77 1871.78L1442.94 1862.1C1444.28 1859.16 1445.89 1856.45 1447.75 1854.05C1450.58 1850.28 1453.95 1847.3 1457.65 1845.26C1461.36 1843.23 1465.33 1842.19 1469.35 1842.2C1477.26 1842.12 1485.16 1846.23 1490.95 1854.05C1492.82 1856.44 1494.46 1859.15 1495.81 1862.1L1500.92 1871.78C1518.45 1857.59 1530.19 1831.96 1530.19 1802.95C1530.19 1758.62 1504.03 1723.16 1470.56 1722.36C1460.22 1722.36 1450.48 1715.1 1445.01 1703.82C1441.41 1697.57 1439.49 1689.92 1439.53 1682.06C1439.53 1678.83 1439.53 1676.42 1440.14 1673.19V1397.56H1404.24C1373.46 1397.56 1348.88 1361.78 1348.88 1316.97H983.812V3009.44H1029.45C1071.43 3009.44 1105.5 3054.57 1105.5 3110.18V3170.62H1836.23C1903.16 3170.62 1957.31 3242.76 1957.31 3331.81H253.688C253.688 3242.76 307.838 3170.62 374.767 3170.62H436.219V3110.18C436.219 3054.57 470.291 3009.44 512.273 3009.44H557.906V1316.97H436.219C420.082 1316.97 404.606 1308.48 393.196 1293.36C381.785 1278.25 375.375 1257.75 375.375 1236.38ZM618.75 1478.16V1654.74L885.367 1478.16H618.75ZM656.351 3009.44H922.969V2832.86L656.351 3009.44ZM885.367 2767.66H618.75V2944.24L885.367 2767.66ZM656.351 1719.94H922.969V1543.36L656.351 1719.94ZM885.367 1800.53H618.75V1977.11L885.367 1800.53ZM656.351 2042.31H922.969V1865.73L656.351 2042.31ZM885.367 2122.91H618.75V2299.49L885.367 2122.91ZM656.351 2364.69H922.969V2188.11L656.351 2364.69ZM885.367 2445.28H618.75V2621.86L885.367 2445.28ZM656.351 2687.06H922.969V2510.48L656.351 2687.06ZM1463.38 1963.98L1421.52 2042.31H1517.17L1475.31 1963.98C1471.34 1964.23 1467.36 1964.23 1463.38 1963.98ZM1303.61 2122.91H1166.34V2364.69H1174.38L1303.61 2122.91ZM1249.27 2364.69H1689.42L1560.25 2122.91H1378.45L1249.27 2364.69ZM1635.14 2122.91L1764.32 2364.69H1774.78V2122.91H1635.14Z" fill="black"/>
<path d="M1755 2882H1751V2890H1755V2882ZM2079 2890C2081.21 2890 2083 2888.21 2083 2886C2083 2883.79 2081.21 2882 2079 2882V2890ZM1755 2890H2079V2882H1755V2890Z" fill="black"/>
<path d="M1683 2814H1679V2822H1683V2814ZM2007 2822C2009.21 2822 2011 2820.21 2011 2818C2011 2815.79 2009.21 2814 2007 2814V2822ZM1683 2822H2007V2814H1683V2822Z" fill="black"/>
<path d="M1795 2744H1791V2752H1795V2744ZM2119 2752C2121.21 2752 2123 2750.21 2123 2748C2123 2745.79 2121.21 2744 2119 2744V2752ZM1795 2752H2119V2744H1795V2752Z" fill="black"/>
<path d="M3954.14 2274.18C3923.35 2280.58 3896.42 2295.97 3879.94 2316.2C3864.87 2310.41 3848.16 2309.11 3832.02 2312.48C3790.16 2321.18 3762.02 2358.62 3766.78 2397.63C3741.13 2410.25 3726.55 2437.37 3732.18 2464.46C3732.93 2468.04 3734.01 2471.54 3735.43 2474.91C3732.71 2484.09 3732.29 2493.68 3734.22 2502.92C3741.02 2535.63 3775.04 2556.31 3810.06 2549.03C3813.71 2548.28 3817.29 2547.23 3820.76 2545.9C3823.71 2549.56 3827.1 2552.88 3830.88 2555.79C3805.69 2565.92 3795.11 2588.42 3806.24 2613.8C3793.58 2623.2 3782.64 2627.81 3785.64 2644.9C3788.1 2658.88 3798.61 2670.12 3813.06 2676.73C3802.45 2688.56 3797.71 2702.96 3800.6 2716.85C3803.9 2732.74 3822.54 2744.12 3835.4 2751.36C3827.06 2767.32 3830.77 2789.02 3846.17 2805.14C3847.61 2806.63 3849.12 2808.06 3850.71 2809.41L3843.11 2883.44L3907.17 2825.54C3917.77 2822.69 3926.87 2820.11 3937.4 2819.46C3952.35 2816.35 3965.31 2807.2 3973.84 2793.94C3976.33 2793.67 3978.81 2793.28 3981.26 2792.78C4019.55 2784.82 4044.66 2749.24 4037.22 2713.48C4036.35 2709.28 4035.07 2705.22 4033.38 2701.33C4043.36 2696.4 4052.01 2689.34 4058.63 2680.74C4065.25 2672.14 4069.64 2662.24 4071.46 2651.86C4083.78 2645.3 4094.19 2635.93 4101.68 2624.64C4143.32 2615.75 4173.64 2580.34 4174.22 2540.88C4193.65 2521.53 4202.6 2495.52 4198.7 2469.65C4223.55 2454.68 4236.62 2427.09 4230.92 2399.67C4223.79 2365.37 4189.28 2343.16 4152.68 2348.42C4140.84 2318.84 4107.32 2301.3 4072.91 2308.45C4071.34 2308.78 4069.78 2309.15 4068.23 2309.58C4050.13 2278.95 4003.64 2263.89 3954.14 2274.18ZM3958.63 2295.77C4001.03 2286.95 4041.43 2300.8 4050.62 2327.29L4050.94 2328.24C4033.86 2318.55 4013.23 2315.52 3993.32 2319.77C3980.6 2322.5 3968.68 2328.1 3958.61 2336.08C3948.54 2344.06 3940.63 2354.17 3935.56 2365.52C3947.32 2350.31 3964.54 2339.57 3983.87 2335.4C3994.07 2333.21 4004.56 2332.92 4014.74 2334.53C4024.92 2336.15 4034.59 2339.65 4043.2 2344.82C4051.82 2350 4059.2 2356.75 4064.93 2364.7C4070.66 2372.65 4074.62 2381.63 4076.6 2391.14C4079.59 2405.57 4077.89 2420.65 4071.72 2434.46C4078.31 2425.97 4082.99 2416.34 4085.46 2406.19C4087.92 2396.04 4088.13 2385.59 4086.05 2375.51C4082.79 2360.01 4074.28 2346.07 4061.76 2335.75C4066.82 2333.42 4071.7 2331.33 4077.39 2330.04C4102.9 2324.74 4127.68 2339.78 4132.69 2363.57L4135.26 2375.93C4141.12 2374.11 4146.71 2372.18 4152.48 2370.83C4178.02 2365.52 4202.84 2380.62 4207.8 2404.48C4212.01 2424.73 4200.88 2445.12 4180.72 2454.07L4171.74 2458.05C4172.8 2462.13 4173.91 2466.07 4174.8 2470.04C4179.24 2491.44 4171.62 2513.36 4154.4 2528.66L4150.34 2532.26L4150.6 2537.42C4152.16 2568.18 4128.99 2596.44 4096.7 2603.15C4093.69 2603.72 4090.04 2604.27 4086.77 2604.75L4083.92 2609.81C4077.46 2621 4063.89 2631.72 4049.22 2637.65C4047.83 2658.23 4037.88 2674.22 4013.79 2685.26L3997.85 2689.63L4007.02 2702.27C4010.52 2707.08 4012.92 2712.53 4014.11 2718.28C4019.07 2742.14 4002.32 2765.87 3976.78 2771.18C3971.62 2772.23 3965.12 2772.34 3959.3 2772.31C3953.19 2784.64 3948.62 2792.15 3932.92 2797.86C3921.2 2800.14 3907.68 2800.53 3895.46 2805.85L3857.33 2856.82L3874.45 2807.98L3875.87 2799.26C3871.37 2796.22 3867.59 2793.92 3863.9 2790.11C3853.3 2779.03 3851.36 2763.72 3859.66 2756.69C3861.07 2755.48 3862.18 2753.99 3862.89 2752.33C3863.6 2750.67 3863.89 2748.89 3863.74 2747.13C3863.18 2740.81 3858.48 2738.19 3850.68 2733.85C3843.74 2729.98 3825.32 2719.73 3823.72 2712.05C3821.45 2701.13 3829.06 2689 3843.11 2681.16L3873.57 2664.15L3838.85 2660.7C3822.84 2659.1 3811.03 2651.02 3808.76 2640.1C3807.72 2634.51 3826.33 2624.42 3830.38 2618.1C3821.78 2600.33 3823.6 2583.72 3846.94 2573.89C3852.28 2572.8 3858.99 2572.94 3864.96 2573.1C3868.41 2564.85 3871.99 2557.04 3876.96 2549.21L3862.49 2546.08C3856.74 2544.84 3851.37 2542.43 3846.76 2539.02C3842.16 2535.62 3838.42 2531.29 3835.8 2526.35L3830.13 2515.61C3821.71 2520.63 3815.17 2525.27 3805.57 2527.44C3783.3 2532.07 3761.66 2518.92 3757.34 2498.12C3755.91 2491.26 3756.51 2484.14 3759.05 2477.51L3760.75 2473.09C3758.36 2468.47 3756.44 2464.87 3755.3 2459.65C3751.28 2440.34 3763.41 2421 3783.51 2414.67L3794.1 2411.33C3792.99 2407.08 3791.82 2402.88 3790.87 2398.73C3784.81 2369.57 3805.28 2340.56 3836.51 2334.07C3850.69 2331.12 3865.28 2333.22 3877.6 2339.98L3887.76 2345.57L3893.86 2335.79C3905.78 2316.68 3929.99 2301.72 3958.63 2295.77ZM3843.91 2404.09C3833.96 2406.26 3824.62 2411.55 3817.09 2419.25C3809.57 2426.95 3804.22 2436.72 3801.76 2447.26C3798.51 2461.14 3800.47 2475.37 3807.21 2486.83C3813.96 2498.29 3824.93 2506.04 3837.71 2508.37C3838.72 2508.55 3839.73 2508.69 3840.76 2508.8C3831.57 2504.52 3824.26 2496.92 3820.03 2487.24C3815.79 2477.56 3814.87 2466.37 3817.41 2455.46C3820.41 2442.62 3828 2431.16 3838.49 2423.6C3848.98 2416.04 3861.52 2413.01 3873.36 2415.16C3873.96 2415.29 3874.56 2415.44 3875.16 2415.6C3870.12 2419.3 3866.17 2423.85 3863.6 2428.91C3861.03 2433.96 3859.92 2439.37 3860.35 2444.73C3860.42 2445.59 3860.53 2446.45 3860.69 2447.3C3863.98 2440.75 3869.7 2434.91 3877.16 2430.47C3884.62 2426.04 3893.49 2423.2 3902.7 2422.3C3911.71 2421.44 3920.66 2422.47 3928.51 2425.28C3936.37 2428.09 3942.8 2432.56 3947.05 2438.17C3947.05 2437.87 3947.05 2437.57 3947.04 2437.27C3946.28 2428.04 3940.99 2419.58 3932.32 2413.75C3923.66 2407.92 3912.34 2405.2 3900.84 2406.19C3898.37 2406.4 3895.92 2406.78 3893.51 2407.33C3889.05 2408.35 3884.79 2409.93 3880.89 2412.01C3875.4 2407.81 3869.03 2404.98 3862.21 2403.71C3856.24 2402.62 3850.03 2402.75 3843.91 2404.09ZM3959.91 2584.48C3946.67 2586.94 3934.74 2592.84 3925.93 2601.29C3917.12 2609.75 3911.93 2620.28 3911.14 2631.29C3910.92 2634.64 3911.11 2638.01 3911.72 2641.33C3911.73 2641.16 3911.75 2640.98 3911.77 2640.81C3912.56 2634.84 3914.78 2629.05 3918.32 2623.78C3921.86 2618.51 3926.63 2613.87 3932.38 2610.12C3938.12 2606.37 3944.72 2603.58 3951.8 2601.91C3958.88 2600.24 3966.29 2599.73 3973.63 2600.4C3980.96 2601.07 3988.07 2602.91 3994.54 2605.81C4001.01 2608.72 4006.73 2612.64 4011.35 2617.34C4015.98 2622.04 4019.43 2627.43 4021.51 2633.21C4023.58 2638.99 4024.24 2645.04 4023.45 2651.02C4022.57 2657.58 4019.95 2663.89 4015.79 2669.54C4027.1 2660.64 4033.9 2648.64 4034.84 2635.93C4035.31 2629.32 4034.18 2622.72 4031.51 2616.49C4028.83 2610.27 4024.68 2604.55 4019.27 2599.66C4013.86 2594.77 4007.3 2590.8 3999.98 2587.99C3992.66 2585.18 3984.71 2583.58 3976.58 2583.27C3970.99 2583.06 3965.38 2583.47 3959.91 2584.48ZM3795.3 2886.33C3755.73 2894.55 3825.54 2870.07 3793.56 2894.61C3776.38 2912.59 3755.73 2894.55 3795.3 2886.33C3802.99 2923.3 3834.88 2878.1 3795.3 2886.33C3793.29 2876.65 3848.79 2890.93 3843.11 2883.44C3840.07 2879.44 3857.2 2905.16 3831.87 2895.59C3819.78 2891.03 3792.88 2899.84 3795.3 2886.33C3796.36 2880.43 3797.46 2919.15 3843.11 2883.44C3835.96 2882.94 3802.36 2884.86 3795.3 2886.33ZM3795.3 2886.33C3797.09 2886.27 3797.98 2882.38 3799.99 2892.41C3804.44 2898.21 3803.98 2892.3 3797.44 2896.61C3790.91 2900.92 3827.21 2873.2 3793.56 2894.61C3789.24 2888.7 3775.68 2905.65 3795.3 2886.33C3795.12 2886.33 3795.82 2885.82 3795.3 2886.33Z" fill="black"/>
<path d="M3867.12 876.844L3882.47 921.826C3887.23 935.512 3895.29 947.947 3906 958.135C3916.72 968.324 3929.79 975.983 3944.16 980.5L3991.39 995.116L3992.32 995.368C3995.96 996.589 3999.12 998.857 4001.35 1001.86C4003.58 1004.86 4004.78 1008.45 4004.78 1012.13C4004.78 1015.8 4003.58 1019.39 4001.35 1022.39C3999.12 1025.39 3995.96 1027.66 3992.32 1028.88L3945.09 1043.5C3930.71 1048.02 3917.64 1055.68 3906.93 1065.86C3896.22 1076.05 3888.16 1088.49 3883.39 1102.17L3868.05 1147.11C3866.76 1150.58 3864.38 1153.59 3861.23 1155.71C3858.08 1157.84 3854.31 1158.98 3850.45 1158.98C3846.59 1158.98 3842.82 1157.84 3839.67 1155.71C3836.52 1153.59 3834.14 1150.58 3832.85 1147.11L3817.46 1102.17C3812.74 1088.46 3804.7 1075.99 3794 1065.76C3783.3 1055.51 3770.22 1047.8 3755.81 1043.25L3708.58 1028.63C3704.94 1027.41 3701.78 1025.14 3699.55 1022.14C3697.32 1019.14 3696.12 1015.55 3696.12 1011.87C3696.12 1008.2 3697.32 1004.61 3699.55 1001.61C3701.78 998.605 3704.94 996.337 3708.58 995.116L3755.81 980.5C3770.01 975.86 3782.88 968.147 3793.42 957.966C3803.96 947.784 3811.87 935.413 3816.54 921.826L3831.88 876.886C3833.16 873.402 3835.54 870.382 3838.69 868.245C3841.85 866.108 3845.63 864.959 3849.5 864.959C3853.38 864.959 3857.15 866.108 3860.31 868.245C3863.47 870.382 3865.85 873.36 3867.12 876.844ZM4083.43 1209.99L4049.65 1199.57C4039.4 1196.31 4030.09 1190.82 4022.45 1183.54C4014.81 1176.25 4009.05 1167.38 4005.64 1157.61L3994.61 1125.53C3993.7 1123.05 3992 1120.9 3989.75 1119.38C3987.5 1117.85 3984.8 1117.04 3982.04 1117.04C3979.28 1117.04 3976.59 1117.85 3974.34 1119.38C3972.09 1120.9 3970.39 1123.05 3969.48 1125.53L3958.54 1157.61C3955.18 1167.32 3949.52 1176.15 3942 1183.43C3934.47 1190.71 3925.28 1196.23 3915.14 1199.57L3881.41 1209.99C3878.82 1210.88 3876.59 1212.5 3875.01 1214.64C3873.43 1216.79 3872.58 1219.34 3872.58 1221.96C3872.58 1224.58 3873.43 1227.13 3875.01 1229.27C3876.59 1231.41 3878.82 1233.04 3881.41 1233.93L3915.14 1244.39C3925.43 1247.65 3934.76 1253.16 3942.42 1260.46C3950.08 1267.77 3955.84 1276.67 3959.24 1286.47L3970.18 1318.56C3971.09 1321.04 3972.79 1323.19 3975.05 1324.71C3977.3 1326.23 3979.99 1327.05 3982.75 1327.05C3985.51 1327.05 3988.2 1326.23 3990.45 1324.71C3992.71 1323.19 3994.41 1321.04 3995.32 1318.56L4006.3 1286.47C4009.72 1276.7 4015.48 1267.82 4023.13 1260.54C4030.78 1253.26 4040.1 1247.77 4050.36 1244.51L4084.09 1234.1C4086.68 1233.21 4088.91 1231.58 4090.49 1229.44C4092.07 1227.3 4092.92 1224.74 4092.92 1222.13C4092.92 1219.51 4092.07 1216.96 4090.49 1214.81C4088.91 1212.67 4086.68 1211.04 4084.09 1210.16L4083.43 1209.99ZM3629.95 991C3638.59 991.056 3646.72 992.526 3654.34 995.41C3649.95 1010.23 3651.7 1026.09 3659.23 1039.71C3666.77 1053.33 3679.51 1063.68 3694.82 1068.62L3696.1 1069.04V1180C3696.1 1196.71 3689.13 1212.73 3676.73 1224.55C3664.32 1236.36 3647.49 1243 3629.95 1243H3409.45C3391.91 1243 3375.08 1236.36 3362.67 1224.55C3350.27 1212.73 3343.3 1196.71 3343.3 1180V1054C3343.3 1037.29 3350.27 1021.27 3362.67 1009.45C3375.08 997.638 3391.91 991 3409.45 991H3629.95ZM3453.55 1327H3409.45C3391.91 1327 3375.08 1333.64 3362.67 1345.45C3350.27 1357.27 3343.3 1373.29 3343.3 1390V1516C3343.3 1532.71 3350.27 1548.73 3362.67 1560.55C3375.08 1572.36 3391.91 1579 3409.45 1579H3453.55C3471.09 1579 3487.92 1572.36 3500.33 1560.55C3512.73 1548.73 3519.7 1532.71 3519.7 1516V1390C3519.7 1373.29 3512.73 1357.27 3500.33 1345.45C3487.92 1333.64 3471.09 1327 3453.55 1327ZM3674.05 1327C3656.51 1327 3639.68 1333.64 3627.27 1345.45C3614.87 1357.27 3607.9 1373.29 3607.9 1390V1516C3607.9 1532.71 3614.87 1548.73 3627.27 1560.55C3639.68 1572.36 3656.51 1579 3674.05 1579H3894.55C3912.09 1579 3928.92 1572.36 3941.33 1560.55C3953.73 1548.73 3960.7 1532.71 3960.7 1516V1390C3960.7 1373.29 3953.73 1357.27 3941.33 1345.45C3928.92 1333.64 3912.09 1327 3894.55 1327H3674.05Z" fill="#7C7C7C"/>
</g>
<defs>
<clipPath id="clip0_325_144">
<rect width="4479" height="4858" fill="white"/>
</clipPath>
</defs>
</svg>
